# xmcd
#
# Track frame offsets: 
#        225
#        17482
#        39020
#        77093
#        91668
#        106875
#        118904
#        144394
#        171437
#        193779
#        220017
#        235755
#
# Disc length: 3452 seconds
#
# Revision: 1
# Processed by: cddbd v1.5.2PL0 Copyright (c) Steve Scherf et al.
# Submitted via: ExactAudioCopy v0.99pb4
#
DISCID=920d790c
DTITLE=Various Artist - JAZZ STANDARD 101 VOL.7
DYEAR=1998
DGENRE=Jazz
TTITLE0=01. The girl from Ipanema
TTITLE1=02. Milestone
TTITLE2=03. A night in Tunisia
TTITLE3=04. The way of you look tonight
TTITLE4=05. Ev'ry time we say goodbye
TTITLE5=06. The nearness of tou
TTITLE6=07. Lover man (oh, where can you be)
TTITLE7=08. My funny valentine
TTITLE8=09. Like someone in love
TTITLE9=10. When you wish upon a star
TTITLE10=11. Dancing in the dark
TTITLE11=12. Yesterdays
EXTD=YEAR: 1998
EXTT0=
EXTT1=
EXTT2=
EXTT3=
EXTT4=
EXTT5=
EXTT6=
EXTT7=
EXTT8=
EXTT9=
EXTT10=
EXTT11=
PLAYORDER=
